<svg xmlns="http://www.w3.org/2000/svg" width="500" height="500" viewBox="0 0 500 500"><defs><style>.a{fill:#044e87;}</style></defs><title>sm-membercommunications-experienced-sales-team</title><polygon class="a" points="269.55 366.88 220.67 404.27 211.03 447.12 276.17 397.04 269.55 366.88"/><path class="a" d="M279.8,413.32l-59.71,45.86,30.16,28.35c.61.61.61.61,1.2.61s1.2,0,1.2-.61L287,450.13c.61-.61.61-1.2.61-2.4Z"/><path class="a" d="M238.18,325.85,225.51,382l40.41-30.78-5.42-24.74,16.9-21.11a3.59,3.59,0,0,0,.61-2.4l-10.86-27.15c-.61-.61-1.2-1.2-1.81-1.2H232.76c-.61,0-1.2.61-1.81,1.2L220.7,302.92c-.61.61,0,1.81.61,2.4Z"/><path class="a" d="M337.71,131.61a88.67,88.67,0,0,1-177.34,0,89.73,89.73,0,0,1,3-21.73c10.25,4.83,29.55,12.68,50.66,12.68,15.69,0,32-3.63,48.26-15.08,1.81-1.2,40.41-29,71.78-1.2a86,86,0,0,1,3.63,25.33ZM249,14.59a117.13,117.13,0,0,0-117,117c0,64.54,52.48,117.63,117.63,117.63A117.39,117.39,0,0,0,367.27,131.61C367.27,66.45,314.18,14.59,249,14.59Z"/><path class="a" d="M399.24,366.88H355.81V353h43.43ZM439,399.47l1.2-30.78a94.24,94.24,0,0,0-94.12-94.12h-3L297.28,478.48a271.66,271.66,0,0,0,141.76-79Z"/><path class="a" d="M200.17,480.3,149.51,274.57h-4.22a94.24,94.24,0,0,0-94.12,94.12l1.2,35c39.8,39.21,90.49,66.95,147.8,76.61Z"/></svg>